<svg width="33" height="33" viewBox="0 0 33 33" fill="none" xmlns="http://www.w3.org/2000/svg">
<rect x="0.5" y="0.5" width="32" height="32" rx="16" stroke="white"/>
<path fill-rule="evenodd" clip-rule="evenodd" d="M24.2267 22.0943L20.3462 18.2139C21.0329 17.3046 21.4402 16.1724 21.4402 14.9451C21.4402 11.9468 19.0095 9.51611 16.0111 9.51611C13.0127 9.51611 10.582 11.9468 10.582 14.9451C10.582 17.9435 13.0127 20.3742 16.0111 20.3742C17.2384 20.3742 18.3705 19.9669 19.2798 19.2802L23.1603 23.1607L24.2267 22.0943ZM19.9318 14.9454C19.9318 17.1109 18.1763 18.8663 16.0108 18.8663C13.8453 18.8663 12.0898 17.1109 12.0898 14.9454C12.0898 12.7799 13.8453 11.0244 16.0108 11.0244C18.1763 11.0244 19.9318 12.7799 19.9318 14.9454Z" fill="white"/>
</svg>
